<svg xmlns="http://www.w3.org/2000/svg" width="21" height="32" viewBox="0 0 21 32" fill="none"><path d="M10.6412 11.3553C5.3165 11.3553 1 15.6719 1 20.9965C1 26.3212 5.3165 30.6377 10.6412 30.6377C15.9658 30.6377 20.2823 26.3212 20.2823 20.9965C20.2823 15.6718 15.9658 11.3553 10.6412 11.3553Z" stroke="#EDEEEF" stroke-miterlimit="10"></path><path d="M10.6412 6.4115C5.3165 6.4115 1 10.728 1 16.0527C1 21.3773 5.3165 25.6938 10.6412 25.6938C15.9658 25.6938 20.2823 21.3773 20.2823 16.0527C20.2823 10.728 15.9658 6.4115 10.6412 6.4115Z" stroke="#EDEEEF" stroke-miterlimit="10"></path><path d="M10.6412 1.46033C5.3165 1.46033 1 5.77683 1 11.1015C1 16.4262 5.3165 20.7427 10.6412 20.7427C15.9658 20.7427 20.2823 16.4262 20.2823 11.1015C20.2823 5.77683 15.9658 1.46033 10.6412 1.46033Z" stroke="#EDEEEF" stroke-miterlimit="10"></path></svg>