<svg xmlns="http://www.w3.org/2000/svg" width="85" height="18" viewBox="0 0 85 18" fill="none"><path d="M16.5272 17.7356C15.101 17.7356 13.7538 17.7356 12.4053 17.7356C12.2947 17.7356 12.1842 17.7356 11.9908 17.7356C11.9908 17.5271 11.9908 17.3435 11.9908 17.1599C11.9895 14.1033 12.0027 11.048 11.979 7.99144C11.9711 6.81784 11.7356 5.69276 10.8107 4.85091C9.66212 3.80582 8.29911 3.68911 6.89532 4.12839C5.54546 4.55063 4.82843 5.58261 4.58898 6.94241C4.51136 7.38038 4.49163 7.83277 4.49031 8.27861C4.48242 11.2382 4.48636 14.1991 4.48636 17.1586C4.48636 17.3317 4.48636 17.5048 4.48636 17.7054C2.97731 17.7054 1.50773 17.7054 0.00131565 17.7054C0 11.9148 0 6.11892 0 0.296821C1.47484 0.296821 2.94442 0.296821 4.47189 0.296821C4.47189 1.06261 4.47189 1.83365 4.47189 2.60599C5.902 0.569568 7.90179 -0.1123 10.2476 0.0398089C12.6289 0.19454 14.4458 1.2934 15.6233 3.45833C15.7983 3.21181 15.9509 2.9784 16.1206 2.75941C17.6981 0.721677 19.786 -0.118857 22.3489 0.045054C25.4802 0.244369 28.1799 2.43421 28.4812 6.32348C28.522 6.84931 28.5562 7.37645 28.5575 7.90358C28.5641 10.9917 28.5535 14.0797 28.5693 17.1678C28.5719 17.5927 28.4812 17.7618 28.0128 17.7474C26.8419 17.7133 25.6683 17.7185 24.4974 17.7461C24.0698 17.7566 23.9527 17.6228 23.954 17.2032C23.9698 14.1151 23.9606 11.0271 23.9632 7.93899C23.9632 7.04338 23.8027 6.18973 23.3015 5.4305C22.4581 4.15462 20.9622 3.6406 19.2611 4.0248C17.8744 4.3382 16.7969 5.55901 16.6272 7.04469C16.568 7.56789 16.5351 8.09634 16.5338 8.62217C16.5245 11.4703 16.5298 14.3184 16.5298 17.1665C16.5272 17.337 16.5272 17.5101 16.5272 17.7356ZM47.1265 3.27475C44.5492 0.336159 41.239 -0.486016 37.5381 0.256171C33.1504 1.13604 30.548 4.34869 30.4652 8.80706C30.3954 12.5154 31.9716 15.3189 35.3146 17.0262C37.2302 18.0044 39.2984 18.1513 41.4022 17.8431C45.9951 17.1691 49.0579 13.605 49.054 8.96048C49.0513 6.72736 48.3896 4.71454 47.1265 3.27475ZM44.29 8.09634C44.3703 9.1611 44.3426 10.2049 43.9808 11.2172C43.3164 13.0792 41.4008 14.3236 39.4379 14.1833C37.3434 14.0338 35.708 12.6137 35.316 10.5786C35.0936 9.42074 35.0884 8.25894 35.3988 7.11157C35.9409 5.10924 37.6368 3.82024 39.7142 3.82024C42.1718 3.81893 44.1071 5.64817 44.29 8.09634ZM69.2505 12.5062C69.5136 14.9137 70.8516 16.4938 73.0777 17.3409C75.1604 18.1342 77.3102 18.1618 79.4639 17.6845C80.9703 17.3501 82.3017 16.6603 83.2885 15.4422C85.2435 13.0307 84.2186 9.59776 81.1755 8.45826C80.223 8.10159 79.2007 7.93374 78.2153 7.66493C77.0628 7.35022 75.9024 7.05649 74.771 6.67622C74.2263 6.49395 73.829 6.07565 73.8119 5.42263C73.7934 4.72372 74.1013 4.20183 74.7236 3.9199C75.1236 3.73763 75.5709 3.60257 76.0064 3.56323C77.5878 3.41899 79.0929 3.81369 79.3047 5.64424C79.3073 5.67046 79.3441 5.69145 79.3639 5.71374C80.9177 5.71374 82.4701 5.71374 84.0344 5.71374C84.0344 5.48689 84.0608 5.27839 84.0305 5.08039C83.7634 3.3626 82.8622 2.06443 81.3795 1.16489C80.1006 0.387299 78.6811 0.0883264 77.2088 0.0293186C75.1354 -0.0532923 73.1369 0.218144 71.4042 1.48091C69.9149 2.56665 69.1295 3.99595 69.3097 5.88814C69.4728 7.61117 70.5464 8.64184 72.0173 9.25552C73.0251 9.67644 74.1316 9.8574 75.1933 10.1524C76.3761 10.4816 77.5693 10.7792 78.7311 11.1687C79.2942 11.3575 79.7033 11.802 79.7231 12.4616C79.7441 13.15 79.4152 13.6641 78.8245 13.9919C77.7509 14.5872 76.6181 14.5977 75.4761 14.2292C74.7696 14.0024 74.3289 13.4962 74.1302 12.7829C74.0842 12.619 74.0421 12.4537 74 12.2951C72.4067 12.2951 70.8385 12.2951 69.2505 12.2951C69.2492 12.3829 69.2439 12.4446 69.2505 12.5062ZM64.4984 0.966887C62.7393 0.101439 60.8711 -0.120168 58.9319 0.0752136C56.9321 0.277151 55.1296 0.947218 53.6087 2.2703C51.4616 4.13757 50.538 6.53722 50.6393 9.34337C50.7433 12.2177 51.9037 14.5715 54.285 16.2355C56.7018 17.9257 59.416 18.3047 62.267 17.7592C64.7418 17.2858 66.606 15.9483 67.7783 13.6418C66.61 12.9625 65.4535 12.2898 64.2866 11.6106C64.1774 11.7771 64.0918 11.9109 64.0011 12.042C62.096 14.7747 57.7807 14.7393 55.9756 11.9594C55.2007 10.7661 55.0625 9.4391 55.2375 8.04651C55.4822 6.10057 56.811 4.56636 58.7516 4.06414C60.7711 3.54094 62.7762 4.21887 63.9261 5.81471C64.0458 5.97993 64.1602 6.14908 64.2958 6.34447C65.4641 5.66522 66.606 5.0004 67.7651 4.32771C67.0599 2.79744 65.9693 1.69072 64.4984 0.966887Z" fill="#EDEEEF"></path></svg>